REM DIRINDEX 1\2\6,1\2\7,1\2\8,1\3\9,1\3\10,1\3\11,1\4\12,1\4\13,1\4\14,1\5\15,1\5\16,1\5\17,1\5\18
REM DIRNAME folder01,folder02,folder03,folder04,folder05,folder06,folder07,folder08,folder09,folder10,folder11,folder12,folder13,folder14,folder15,folder16,folder17,folder18
TITLE ""
FILE "" MP3
  TRACK 01 AUDIO
    TITLE "16:cjc019_7653"
    INDEX 01 00:00:00
  TRACK 02 AUDIO
    TITLE "0:"
    INDEX 01 00:01:22
  TRACK 03 AUDIO
    TITLE "18:cjc019_7654"
    INDEX 01 00:02:04
  TRACK 04 AUDIO
    TITLE "0:"
    INDEX 01 00:03:04
  TRACK 05 AUDIO
    TITLE "17:cjc019_7655"
    INDEX 01 00:03:61
  TRACK 06 AUDIO
    TITLE "0:"
    INDEX 01 00:05:22
  TRACK 07 AUDIO
    TITLE "16:cjc019_7656"
    INDEX 01 00:07:07
  TRACK 08 AUDIO
    TITLE "0:"
    INDEX 01 00:08:50
  TRACK 09 AUDIO
    TITLE "18:cjc019_7657"
    INDEX 01 00:09:38
  TRACK 10 AUDIO
    TITLE "0:"
    INDEX 01 00:10:74
  TRACK 11 AUDIO
    TITLE "17:cjc019_7658"
    INDEX 01 00:11:52
  TRACK 12 AUDIO
    TITLE "0:"
    INDEX 01 00:13:26
  TRACK 13 AUDIO
    TITLE "16:cjc019_7659"
    INDEX 01 00:15:09
  TRACK 14 AUDIO
    TITLE "0:"
    INDEX 01 00:16:12
  TRACK 15 AUDIO
    TITLE "18:cjc019_7660"
    INDEX 01 00:16:69
  TRACK 16 AUDIO
    TITLE "0:"
    INDEX 01 00:19:15
  TRACK 17 AUDIO
    TITLE "17:cjc019_7661"
    INDEX 01 00:19:67
  TRACK 18 AUDIO
    TITLE "0:"
    INDEX 01 00:21:02
  TRACK 19 AUDIO
    TITLE "16:cjc019_7662"
    INDEX 01 00:22:62
  TRACK 20 AUDIO
    TITLE "0:"
    INDEX 01 00:23:71
  TRACK 21 AUDIO
    TITLE "18:cjc019_7663"
    INDEX 01 00:24:61
  TRACK 22 AUDIO
    TITLE "0:"
    INDEX 01 00:27:04
  TRACK 23 AUDIO
    TITLE "17:cjc019_7664"
    INDEX 01 00:27:63
  TRACK 24 AUDIO
    TITLE "0:"
    INDEX 01 00:28:74
  TRACK 25 AUDIO
    TITLE "16:cjc019_7665"
    INDEX 01 00:30:61
  TRACK 26 AUDIO
    TITLE "0:"
    INDEX 01 00:31:71
  TRACK 27 AUDIO
    TITLE "18:cjc019_7666"
    INDEX 01 00:32:52
  TRACK 28 AUDIO
    TITLE "0:"
    INDEX 01 00:34:43
  TRACK 29 AUDIO
    TITLE "17:cjc019_7667"
    INDEX 01 00:35:19
  TRACK 30 AUDIO
    TITLE "0:"
    INDEX 01 00:36:29
  TRACK 31 AUDIO
    TITLE "16:cjc019_7668"
    INDEX 01 00:38:18
  TRACK 32 AUDIO
    TITLE "0:"
    INDEX 01 00:39:29
  TRACK 33 AUDIO
    TITLE "18:cjc019_7669"
    INDEX 01 00:40:13
  TRACK 34 AUDIO
    TITLE "0:"
    INDEX 01 00:44:40
  TRACK 35 AUDIO
    TITLE "17:cjc019_7670"
    INDEX 01 00:45:24
  TRACK 36 AUDIO
    TITLE "0:"
    INDEX 01 00:46:35
  TRACK 37 AUDIO
    TITLE "16:cjc019_7671"
    INDEX 01 00:48:20
  TRACK 38 AUDIO
    TITLE "0:"
    INDEX 01 00:49:33
  TRACK 39 AUDIO
    TITLE "18:cjc019_7672"
    INDEX 01 00:50:05
  TRACK 40 AUDIO
    TITLE "0:"
    INDEX 01 00:52:41
  TRACK 41 AUDIO
    TITLE "17:cjc019_7673"
    INDEX 01 00:53:23
  TRACK 42 AUDIO
    TITLE "0:"
    INDEX 01 00:54:36
  TRACK 43 AUDIO
    TITLE "16:cjc019_7674"
    INDEX 01 00:56:12
  TRACK 44 AUDIO
    TITLE "0:"
    INDEX 01 00:57:37
  TRACK 45 AUDIO
    TITLE "18:cjc019_7675"
    INDEX 01 00:58:18
  TRACK 46 AUDIO
    TITLE "0:"
    INDEX 01 00:59:28
  TRACK 47 AUDIO
    TITLE "17:cjc019_7676"
    INDEX 01 01:00:06
  TRACK 48 AUDIO
    TITLE "0:"
    INDEX 01 01:01:29
  TRACK 49 AUDIO
    TITLE "16:cjc019_7677"
    INDEX 01 01:03:10
  TRACK 50 AUDIO
    TITLE "0:"
    INDEX 01 01:04:54
  TRACK 51 AUDIO
    TITLE "18:cjc019_7678"
    INDEX 01 01:05:36
  TRACK 52 AUDIO
    TITLE "0:"
    INDEX 01 01:06:26
  TRACK 53 AUDIO
    TITLE "17:cjc019_7679"
    INDEX 01 01:07:10
  TRACK 54 AUDIO
    TITLE "0:"
    INDEX 01 01:08:52
  TRACK 55 AUDIO
    TITLE "16:cjc019_7680"
    INDEX 01 01:10:37
  TRACK 56 AUDIO
    TITLE "0:"
    INDEX 01 01:11:62
  TRACK 57 AUDIO
    TITLE "18:cjc019_7681"
    INDEX 01 01:12:46
  TRACK 58 AUDIO
    TITLE "0:"
    INDEX 01 01:16:73
  TRACK 59 AUDIO
    TITLE "17:cjc019_7682"
    INDEX 01 01:17:51
  TRACK 60 AUDIO
    TITLE "0:"
    INDEX 01 01:18:74
  TRACK 61 AUDIO
    TITLE "16:cjc019_7683"
    INDEX 01 01:20:57
  TRACK 62 AUDIO
    TITLE "0:"
    INDEX 01 01:21:72
  TRACK 63 AUDIO
    TITLE "18:cjc019_7684"
    INDEX 01 01:22:50
  TRACK 64 AUDIO
    TITLE "0:"
    INDEX 01 01:23:58
  TRACK 65 AUDIO
    TITLE "17:cjc019_7685"
    INDEX 01 01:24:30
  TRACK 66 AUDIO
    TITLE "0:"
    INDEX 01 01:25:47
  TRACK 67 AUDIO
    TITLE "16:cjc019_7686"
    INDEX 01 01:27:28
  TRACK 68 AUDIO
    TITLE "0:"
    INDEX 01 01:28:35
  TRACK 69 AUDIO
    TITLE "18:cjc019_7687"
    INDEX 01 01:29:19
  TRACK 70 AUDIO
    TITLE "0:"
    INDEX 01 01:30:22
  TRACK 71 AUDIO
    TITLE "17:cjc019_7688"
    INDEX 01 01:31:02
  TRACK 72 AUDIO
    TITLE "0:"
    INDEX 01 01:32:12
  TRACK 73 AUDIO
    TITLE "16:cjc019_7689"
    INDEX 01 01:33:70
  TRACK 74 AUDIO
    TITLE "0:"
    INDEX 01 01:35:14
  TRACK 75 AUDIO
    TITLE "18:cjc019_7690"
    INDEX 01 01:35:71
  TRACK 76 AUDIO
    TITLE "0:"
    INDEX 01 01:38:71
  TRACK 77 AUDIO
    TITLE "17:cjc019_7691"
    INDEX 01 01:39:53
  TRACK 78 AUDIO
    TITLE "0:"
    INDEX 01 01:40:70
  TRACK 79 AUDIO
    TITLE "16:cjc019_7692"
    INDEX 01 01:42:55
  TRACK 80 AUDIO
    TITLE "0:"
    INDEX 01 01:44:05
  TRACK 81 AUDIO
    TITLE "18:cjc019_7693"
    INDEX 01 01:44:60
  TRACK 82 AUDIO
    TITLE "0:"
    INDEX 01 01:45:67
  TRACK 83 AUDIO
    TITLE "17:cjc019_7694"
    INDEX 01 01:46:49
  TRACK 84 AUDIO
    TITLE "0:"
    INDEX 01 01:48:01
  TRACK 85 AUDIO
    TITLE "16:cjc019_7695"
    INDEX 01 01:49:61
  TRACK 86 AUDIO
    TITLE "0:"
    INDEX 01 01:51:05
  TRACK 87 AUDIO
    TITLE "18:cjc019_7696"
    INDEX 01 01:51:62
  TRACK 88 AUDIO
    TITLE "0:"
    INDEX 01 01:53:04
  TRACK 89 AUDIO
    TITLE "17:cjc019_7697"
    INDEX 01 01:53:55
  TRACK 90 AUDIO
    TITLE "0:"
    INDEX 01 01:55:01
  TRACK 91 AUDIO
    TITLE "16:cjc019_7698"
    INDEX 01 01:56:53
  TRACK 92 AUDIO
    TITLE "0:"
    INDEX 01 01:58:05
  TRACK 93 AUDIO
    TITLE "18:cjc019_7699"
    INDEX 01 01:58:64
  TRACK 94 AUDIO
    TITLE "0:"
    INDEX 01 02:01:68
  TRACK 95 AUDIO
    TITLE "17:cjc019_7700"
    INDEX 01 02:02:52
  TRACK 96 AUDIO
    TITLE "0:"
    INDEX 01 02:04:08
  TRACK 97 AUDIO
    TITLE "16:cjc019_7701"
    INDEX 01 02:05:60
  TRACK 98 AUDIO
    TITLE "0:"
    INDEX 01 02:06:61
  TRACK 99 AUDIO
    TITLE "18:cjc019_7702"
    INDEX 01 02:07:45
  TRACK 100 AUDIO
    TITLE "0:"
    INDEX 01 02:11:08
  TRACK 101 AUDIO
    TITLE "17:cjc019_7703"
    INDEX 01 02:11:61
  TRACK 102 AUDIO
    TITLE "0:"
    INDEX 01 02:12:68
  TRACK 103 AUDIO
    TITLE "16:cjc019_7704"
    INDEX 01 02:14:51
  TRACK 104 AUDIO
    TITLE "0:"
    INDEX 01 02:16:11
  TRACK 105 AUDIO
    TITLE "18:cjc019_7705"
    INDEX 01 02:16:64
  TRACK 106 AUDIO
    TITLE "0:"
    INDEX 01 02:19:17
  TRACK 107 AUDIO
    TITLE "17:cjc019_7706"
    INDEX 01 02:19:74
  TRACK 108 AUDIO
    TITLE "0:"
    INDEX 01 02:21:35
